<?xml version="1.0" encoding="UTF-8" standalone="no"?>
<!-- Uploaded to: SVG Repo, www.svgrepo.com, Generator: SVG Repo Mixer Tools -->

<svg
   fill="#000000"
   width="800px"
   height="800px"
   viewBox="0 0 24 24"
   id="leaderboard-podium"
   data-name="Flat Color"
   class="icon flat-color"
   version="1.1"
   sodipodi:docname="leaderboard.svg"
   inkscape:version="1.4 (86a8ad7, 2024-10-11)"
   xmlns:inkscape="http://www.inkscape.org/namespaces/inkscape"
   xmlns:sodipodi="http://sodipodi.sourceforge.net/DTD/sodipodi-0.dtd"
   xmlns="http://www.w3.org/2000/svg"
   xmlns:svg="http://www.w3.org/2000/svg">
  <defs
     id="defs1" />
  <sodipodi:namedview
     id="namedview1"
     pagecolor="#ffffff"
     bordercolor="#000000"
     borderopacity="0.25"
     inkscape:showpageshadow="2"
     inkscape:pageopacity="0.0"
     inkscape:pagecheckerboard="0"
     inkscape:deskcolor="#d1d1d1"
     inkscape:zoom="1.06875"
     inkscape:cx="400"
     inkscape:cy="400"
     inkscape:window-width="1920"
     inkscape:window-height="1057"
     inkscape:window-x="-8"
     inkscape:window-y="-8"
     inkscape:window-maximized="1"
     inkscape:current-layer="leaderboard-podium" />
  <path
     id="primary"
     d="M21,13H16V10a1,1,0,0,0-1-1H9a1,1,0,0,0-1,1v5H3a1,1,0,0,0-1,1v5a1,1,0,0,0,1,1H21a1,1,0,0,0,1-1V14A1,1,0,0,0,21,13Z"
     style="fill: rgb(0, 0, 0);" />
  <path
     id="secondary"
     d="M12.93,6.85a1,1,0,0,1-.47-.11L12,6.5l-.46.24a1,1,0,0,1-1.45-1.06l.09-.51L9.8,4.81a1,1,0,0,1,.56-1.71L10.87,3l.23-.47a1,1,0,0,1,1.8,0l.23.47.51.07a1,1,0,0,1,.56,1.71l-.38.36.09.51a1,1,0,0,1-.39,1A1,1,0,0,1,12.93,6.85Z"
     style="fill:#000000;fill-opacity:1" />
</svg>
